#!OML:ASF X:\für Bonn\!DataBase\2005_08_10_Bjorn_Final\c3d\bjorn.ASF
:FULLY-SPECIFIED
:DEGREES
684
root -1.36325 1.46499 21.4077 -442.959 -172.963 9.93769
lowerback -8.27659 -0.560976 -7.47986
upperback 1.60347 0.106355 -4.97258
thorax 6.34914 -0.226412 -1.03099
lowerneck -16.6175 -6.07637 -1.27767
upperneck 5.08203 -8.65936 5.18441
head 4.47315 -4.11299 1.05064
rclavicle 1.11319e-014 -1.05356e-014
rhumerus -220.176 -202.054 110.152
rradius 37.1754
rwrist 4.09377
rhand -14.6986 15.1755
rfingers 7.12502
rthumb 11.4554 -14.4916
lclavicle 1.11319e-014 -1.05356e-014
lhumerus -391.893 -51.7296 -294.165
lradius 34.9303
lwrist -21.2355
lhand -30.479 -19.3293
lfingers 7.12502
lthumb -3.78005 10.6169
rfemur -197.515 -156.096 186.364
rtibia 32.0656
rfoot 7.49405 -8.53311
rtoes 13.1423
lfemur -15.8259 2.91796 -25.2428
ltibia 21.7847
lfoot 17.1235 -10.3686
ltoes -13.2814
685
root -1.36202 1.46407 21.4082 -442.974 -173.021 9.88899
lowerback -8.27918 -0.545606 -7.4121
upperback 1.6298 0.122586 -4.98243
thorax 6.37799 -0.216947 -1.07748
lowerneck -16.6433 -6.06309 -1.17473
upperneck 5.04566 -8.66039 5.14415
head 4.45964 -4.11546 1.02231
rclavicle 4.77083e-015 3.65764e-014
rhumerus -219.983 -201.679 110.42
rradius 36.135
rwrist 4.74305
rhand -14.834 14.9042
rfingers 7.12502
rthumb 11.3249 -14.77
lclavicle 4.77083e-015 3.65764e-014
lhumerus -391.876 -51.7437 -294.246
lradius 34.2247
lwrist -21.2714
lhand -29.9333 -19.1842
lfingers 7.12502
lthumb -3.253 10.7707
rfemur -197.492 -156.047 186.408
rtibia 32.0565
rfoot 7.42279 -8.59356
rtoes 13.0731
lfemur -15.7891 3.0149 -25.1483
ltibia 21.7835
lfoot 17.0111 -10.095
ltoes -13.0818
686
root -1.36053 1.46341 21.4076 -442.985 -173.039 9.8484
lowerback -8.27012 -0.543477 -7.40657
upperback 1.63107 0.123914 -4.97839
thorax 6.37407 -0.216011 -1.07595
lowerneck -16.5925 -6.04205 -1.13323
upperneck 4.96712 -8.63798 5.1344
head 4.42436 -4.10736 1.01786
rclavicle -4.45278e-014 -2.78299e-015
rhumerus -219.8 -201.379 110.71
rradius 35.0916
rwrist 5.32451
rhand -14.9097 14.6807
rfingers 7.12502
rthumb 11.2518 -14.9976
lclavicle -4.45278e-014 -2.78299e-015
lhumerus -391.927 -51.63 -294.252
lradius 33.5377
lwrist -21.3869
lhand -29.5417 -19.0486
lfingers 7.12502
lthumb -2.8749 10.9117
rfemur -197.479 -155.959 186.416
rtibia 32.0431
rfoot 7.37594 -8.66743
rtoes 12.9172
lfemur -15.7645 3.03346 -25.0938
ltibia 21.7904
lfoot 16.8795 -9.8156
ltoes -13.0245
687
root -1.35848 1.4628 21.4071 -443.011 -173.074 9.81897
lowerback -8.23261 -0.550781 -7.37833
upperback 1.62742 0.107486 -4.98199
thorax 6.34922 -0.22204 -1.09687
lowerneck -16.5327 -6.01717 -1.07615
upperneck 4.89777 -8.61523 5.12986
head 4.39023 -4.09866 1.01268
rclavicle -9.54166e-015 1.17283e-014
rhumerus -219.629 -201.049 110.98
rradius 34.0901
rwrist 5.94145
rhand -14.9275 14.429
rfingers 7.12502
rthumb 11.2346 -15.2501
lclavicle -9.54166e-015 1.17283e-014
lhumerus -392.017 -51.5648 -294.273
lradius 32.8767
lwrist -21.4509
lhand -29.2045 -18.8827
lfingers 7.12502
lthumb -2.54921 11.0818
rfemur -197.435 -155.932 186.434
rtibia 32.0311
rfoot 7.26544 -8.74445
rtoes 13.093
lfemur -15.7268 3.14134 -25.0205
ltibia 21.7962
lfoot 16.8374 -9.59785
ltoes -12.7539
688
root -1.35744 1.46249 21.4071 -443.031 -173.115 9.79569
lowerback -8.23112 -0.557703 -7.34202
upperback 1.64856 0.0972915 -4.97359
thorax 6.37123 -0.225952 -1.10998
lowerneck -16.5231 -5.99078 -1.01985
upperneck 4.84071 -8.58636 5.0958
head 4.36613 -4.08711 0.997586
rclavicle -2.22639e-014 7.87187e-014
rhumerus -219.41 -200.704 111.309
rradius 33.1136
rwrist 6.56329
rhand -14.8817 14.2382
rfingers 7.12502
rthumb 11.2789 -15.4385
lclavicle -2.22639e-014 7.87187e-014
lhumerus -392.018 -51.4747 -294.337
lradius 32.2297
lwrist -21.5367
lhand -28.854 -18.7849
lfingers 7.12502
lthumb -2.21075 11.1834
rfemur -197.401 -155.82 186.46
rtibia 32.0199
rfoot 7.22356 -8.78522
rtoes 13.1605
lfemur -15.6885 3.08697 -24.9355
ltibia 21.8055
lfoot 16.6908 -9.24964
ltoes -12.4116
689
root -1.35535 1.46159 21.4065 -443.055 -173.15 9.78558
lowerback -8.19748 -0.566676 -7.3136
upperback 1.65181 0.0798953 -4.97131
thorax 6.35597 -0.232659 -1.12514
lowerneck -16.4789 -5.96882 -0.989204
upperneck 4.75948 -8.56205 5.09931
head 4.33219 -4.07764 0.998823
rclavicle -1.11319e-014 9.74045e-015
rhumerus -219.215 -200.361 111.62
rradius 32.1392
rwrist 7.16233
rhand -14.9456 14.0799
rfingers 7.12502
rthumb 11.2172 -15.6003
lclavicle -1.11319e-014 9.74045e-015
lhumerus -392.046 -51.377 -294.398
lradius 31.5779
lwrist -21.6755
lhand -28.5229 -18.7183
lfingers 7.12502
lthumb -1.89093 11.2531
rfemur -197.37 -155.735 186.487
rtibia 32.0123
rfoot 7.16389 -8.83827
rtoes 13.2256
lfemur -15.6486 3.04275 -24.8515
ltibia 21.8094
lfoot 16.5859 -8.92819
ltoes -12.2021
690
root -1.3538 1.46163 21.4056 -443.066 -173.151 9.74133
lowerback -8.19731 -0.557478 -7.30777
upperback 1.66003 0.0914961 -4.99661
thorax 6.36428 -0.227501 -1.15387
lowerneck -16.4485 -5.95405 -0.901376
upperneck 4.70005 -8.55765 5.07014
head 4.30383 -4.07847 0.978716
rclavicle 3.33958e-014 -3.3197e-014
rhumerus -219.021 -199.91 111.938
rradius 31.1943
rwrist 7.80259
rhand -14.9537 14.0443
rfingers 7.12502
rthumb 11.2094 -15.6363
lclavicle 3.33958e-014 -3.3197e-014
lhumerus -392.035 -51.3154 -294.51
lradius 30.949
lwrist -21.789
lhand -28.1616 -18.6269
lfingers 7.12502
lthumb -1.54195 11.3472
rfemur -197.345 -155.667 186.468
rtibia 32.0013
rfoot 7.10281 -8.90736
rtoes 13.4448
lfemur -15.6252 3.12605 -24.8254
ltibia 21.8176
lfoot 16.4784 -8.76085
ltoes -12.0622
